<?xml version="1.0" encoding="UTF-8"?>
<svg xmlns="http://www.w3.org/2000/svg" xmlns:xlink="http://www.w3.org/1999/xlink" width="35px" height="35px" viewBox="0 0 35 35" version="1.1">
<g id="surface1">
<path style="fill-rule:nonzero;fill:rgb(83.529413%,84.313726%,87.843138%);fill-opacity:1;stroke-width:3;stroke-linecap:butt;stroke-linejoin:miter;stroke:rgb(13.725491%,18.431373%,41.568628%);stroke-opacity:1;stroke-miterlimit:4;" d="M 1.5 1.5 L 38.5 1.5 L 38.5 38.5 L 1.5 38.5 Z M 1.5 1.5 " transform="matrix(0.875,0,0,0.875,0,0)"/>
<path style=" stroke:none;fill-rule:nonzero;fill:rgb(13.725491%,18.431373%,41.568628%);fill-opacity:1;" d="M 4.65625 15.320312 L 4.65625 14.308594 C 4.65625 14.171875 4.71875 14.070312 4.839844 13.992188 L 5.953125 13.296875 C 6.144531 13.179688 6.304688 13.125 6.433594 13.125 L 7.417969 13.125 C 7.582031 13.125 7.671875 13.207031 7.671875 13.378906 L 7.671875 20.746094 C 7.671875 20.84375 7.648438 20.910156 7.609375 20.953125 C 7.574219 20.980469 7.511719 21 7.421875 21 L 6.371094 21 C 6.199219 21 6.117188 20.910156 6.117188 20.746094 L 6.117188 14.773438 L 4.914062 15.460938 C 4.742188 15.539062 4.65625 15.484375 4.65625 15.320312 Z M 13.445312 20.746094 L 13.445312 19.578125 C 13.445312 19.113281 13.652344 18.71875 14.046875 18.390625 L 16.304688 16.480469 C 16.671875 16.179688 16.851562 15.851562 16.851562 15.496094 L 16.851562 15.128906 C 16.851562 14.882812 16.796875 14.695312 16.671875 14.59375 C 16.554688 14.476562 16.367188 14.421875 16.097656 14.421875 L 15.667969 14.421875 C 15.402344 14.421875 15.222656 14.476562 15.113281 14.59375 C 15.003906 14.695312 14.957031 14.882812 14.957031 15.128906 L 14.957031 15.523438 C 14.957031 15.703125 14.867188 15.796875 14.695312 15.796875 L 13.65625 15.796875 C 13.488281 15.796875 13.398438 15.703125 13.398438 15.523438 L 13.398438 15.109375 C 13.398438 14.472656 13.578125 13.980469 13.925781 13.636719 C 14.28125 13.296875 14.773438 13.125 15.421875 13.125 L 16.351562 13.125 C 17 13.125 17.492188 13.296875 17.847656 13.636719 C 18.195312 13.980469 18.375 14.472656 18.375 15.109375 L 18.375 15.601562 C 18.375 16.234375 18.128906 16.761719 17.636719 17.179688 L 15.332031 19.132812 C 15.238281 19.230469 15.1875 19.324219 15.1875 19.433594 L 15.1875 19.625 L 18.117188 19.625 C 18.285156 19.625 18.375 19.714844 18.375 19.886719 L 18.375 20.746094 C 18.375 20.910156 18.285156 21 18.117188 21 L 13.707031 21 C 13.535156 21 13.445312 20.910156 13.445312 20.746094 Z M 26.003906 16.421875 L 26.625 16.421875 C 26.898438 16.421875 27.089844 16.367188 27.199219 16.261719 C 27.324219 16.148438 27.390625 15.960938 27.390625 15.710938 L 27.390625 15.128906 C 27.390625 14.882812 27.324219 14.695312 27.199219 14.59375 C 27.089844 14.476562 26.898438 14.421875 26.625 14.421875 L 26.039062 14.421875 C 25.777344 14.421875 25.59375 14.476562 25.492188 14.59375 C 25.382812 14.695312 25.328125 14.882812 25.328125 15.128906 L 25.328125 15.441406 C 25.328125 15.605469 25.246094 15.695312 25.074219 15.695312 L 24.027344 15.695312 C 23.863281 15.695312 23.773438 15.605469 23.773438 15.441406 L 23.773438 15.109375 C 23.773438 14.472656 23.945312 13.980469 24.300781 13.636719 C 24.648438 13.296875 25.148438 13.125 25.792969 13.125 L 26.886719 13.125 C 27.527344 13.125 28.027344 13.296875 28.375 13.636719 C 28.730469 13.980469 28.910156 14.472656 28.910156 15.109375 L 28.910156 15.714844 C 28.910156 16.40625 28.582031 16.851562 27.9375 17.054688 C 28.582031 17.191406 28.910156 17.644531 28.910156 18.390625 L 28.910156 19.015625 C 28.910156 19.652344 28.730469 20.144531 28.375 20.488281 C 28.027344 20.828125 27.527344 21 26.886719 21 L 25.792969 21 C 25.148438 21 24.648438 20.828125 24.300781 20.488281 C 23.945312 20.144531 23.773438 19.652344 23.773438 19.015625 L 23.773438 18.667969 C 23.773438 18.492188 23.863281 18.402344 24.027344 18.402344 L 25.074219 18.402344 C 25.246094 18.402344 25.328125 18.492188 25.328125 18.667969 L 25.328125 18.992188 C 25.328125 19.257812 25.382812 19.433594 25.492188 19.542969 C 25.59375 19.648438 25.777344 19.703125 26.039062 19.703125 L 26.625 19.703125 C 26.898438 19.703125 27.089844 19.648438 27.199219 19.542969 C 27.324219 19.429688 27.390625 19.242188 27.390625 18.992188 L 27.390625 18.390625 C 27.390625 18.136719 27.324219 17.957031 27.199219 17.847656 C 27.089844 17.738281 26.898438 17.683594 26.625 17.683594 L 26.003906 17.683594 C 25.832031 17.683594 25.742188 17.59375 25.742188 17.425781 L 25.742188 16.6875 C 25.742188 16.507812 25.832031 16.421875 26.003906 16.421875 Z M 26.003906 16.421875 "/>
</g>
</svg>
